<svg width="219" height="53" viewBox="0 0 219 53" fill="none" xmlns="http://www.w3.org/2000/svg">
<g filter="url(#filter0_d_109_2)">
<mask id="path-1-outside-1_109_2" maskUnits="userSpaceOnUse" x="3" y="-1" width="213" height="47" fill="black">
<rect fill="white" x="3" y="-1" width="213" height="47"/>
<path d="M17.464 45C12.8347 45 9.45333 43.9333 7.32 41.8C5.18667 39.6667 4.12 36.2853 4.12 31.656V17.096C4.12 12.424 5.176 9.032 7.288 6.92C9.42133 4.808 12.792 3.752 17.4 3.752H25.144C29.0693 3.752 31.992 4.57333 33.912 6.216C35.832 7.83733 36.888 10.4507 37.08 14.056C37.144 14.632 37.0267 15.0693 36.728 15.368C36.4507 15.6667 36.0347 15.816 35.48 15.816C34.4133 15.816 33.8267 15.2507 33.72 14.12C33.5707 11.4747 32.8453 9.65066 31.544 8.648C30.2427 7.624 28.1093 7.112 25.144 7.112H17.4C14.9467 7.112 12.9947 7.432 11.544 8.072C10.0933 8.69067 9.048 9.736 8.408 11.208C7.78933 12.6587 7.48 14.6213 7.48 17.096V31.656C7.48 34.1307 7.8 36.0933 8.44 37.544C9.08 38.9947 10.1253 40.04 11.576 40.68C13.0267 41.32 14.9893 41.64 17.464 41.64H25.144C27.32 41.64 29.0373 41.3733 30.296 40.84C31.576 40.3067 32.4827 39.4107 33.016 38.152C33.5493 36.8933 33.816 35.1547 33.816 32.936V28.936L26.808 28.872C25.6987 28.872 25.144 28.3067 25.144 27.176C25.144 26.0667 25.6987 25.512 26.808 25.512L35.512 25.576C36.6213 25.576 37.176 26.1307 37.176 27.24V32.936C37.176 37.16 36.2267 40.232 34.328 42.152C32.4293 44.0507 29.368 45 25.144 45H17.464ZM49.305 45C48.1743 45 47.609 44.4347 47.609 43.304V16.424C47.609 15.3147 48.1743 14.76 49.305 14.76C50.4143 14.76 50.969 15.3147 50.969 16.424V21.352C52.0783 19.2187 53.6783 17.5867 55.769 16.456C57.881 15.3253 60.377 14.76 63.257 14.76C64.3877 14.76 64.953 15.3147 64.953 16.424C64.953 17.5547 64.3877 18.12 63.257 18.12C59.4597 18.12 56.5157 18.984 54.425 20.712C52.3343 22.4187 51.1823 24.8613 50.969 28.04V43.304C50.969 44.4347 50.4143 45 49.305 45ZM81.172 45C77.1827 45 74.26 44.0827 72.404 42.248C70.548 40.392 69.62 37.48 69.62 33.512V26.28C69.62 22.248 70.548 19.3147 72.404 17.48C74.26 15.624 77.1827 14.7173 81.172 14.76H86.42C90.4093 14.76 93.3213 15.688 95.156 17.544C97.012 19.3787 97.94 22.2907 97.94 26.28V33.448C97.94 37.4373 97.012 40.36 95.156 42.216C93.3213 44.072 90.4093 45 86.42 45H81.172ZM72.98 33.512C72.98 36.52 73.5773 38.632 74.772 39.848C75.988 41.0427 78.1213 41.64 81.172 41.64H86.42C89.4707 41.64 91.5933 41.0427 92.788 39.848C93.9827 38.632 94.58 36.4987 94.58 33.448V26.28C94.58 23.2293 93.9827 21.1067 92.788 19.912C91.5933 18.7173 89.4707 18.12 86.42 18.12H81.172C79.124 18.0987 77.5027 18.344 76.308 18.856C75.1133 19.368 74.26 20.2213 73.748 21.416C73.236 22.6107 72.98 24.232 72.98 26.28V33.512ZM134.455 14.76C135.585 14.76 136.151 15.3147 136.151 16.424V43.304C136.151 44.4347 135.585 45 134.455 45C133.345 45 132.791 44.4347 132.791 43.304V40.264C130.764 43.4213 127.095 45 121.783 45H119.991C116.001 45 113.079 44.072 111.223 42.216C109.388 40.36 108.471 37.4373 108.471 33.448V16.424C108.471 15.3147 109.025 14.76 110.135 14.76C111.265 14.76 111.831 15.3147 111.831 16.424V33.448C111.831 36.4987 112.428 38.632 113.623 39.848C114.839 41.0427 116.961 41.64 119.991 41.64H121.783C125.089 41.64 127.692 41.1067 129.591 40.04C131.489 38.9733 132.556 37.3413 132.791 35.144V16.424C132.791 15.3147 133.345 14.76 134.455 14.76ZM149.805 45C148.674 45 148.109 44.4347 148.109 43.304V16.424C148.109 15.3147 148.674 14.76 149.805 14.76C150.914 14.76 151.469 15.3147 151.469 16.424V19.496C153.496 16.3387 157.165 14.76 162.477 14.76H164.269C168.258 14.76 171.17 15.688 173.005 17.544C174.861 19.3787 175.789 22.2907 175.789 26.28V43.304C175.789 44.4347 175.234 45 174.125 45C172.994 45 172.429 44.4347 172.429 43.304V26.28C172.429 23.2293 171.821 21.1067 170.605 19.912C169.41 18.7173 167.298 18.12 164.269 18.12H162.477C159.17 18.12 156.568 18.6427 154.669 19.688C152.77 20.7333 151.704 22.3653 151.469 24.584V43.304C151.469 44.4347 150.914 45 149.805 45ZM197.86 45C193.87 45 190.948 44.072 189.092 42.216C187.236 40.36 186.308 37.4373 186.308 33.448V26.28C186.308 22.2907 187.236 19.3787 189.092 17.544C190.948 15.688 193.87 14.76 197.86 14.76H211.268V2.28C211.268 1.17066 211.833 0.615997 212.964 0.615997C214.073 0.615997 214.628 1.17066 214.628 2.28V43.304C214.628 44.4347 214.073 45 212.964 45C211.833 45 211.268 44.4347 211.268 43.304V40.552C210.35 42.024 209.006 43.1333 207.236 43.88C205.465 44.6267 203.15 45 200.292 45H197.86ZM197.86 41.64H200.292C203.62 41.64 206.276 41.1173 208.26 40.072C210.265 39.0053 211.268 37.416 211.268 35.304V18.12H197.86C194.809 18.12 192.676 18.728 191.46 19.944C190.265 21.1387 189.668 23.2507 189.668 26.28V33.448C189.668 36.4987 190.265 38.632 191.46 39.848C192.676 41.0427 194.809 41.64 197.86 41.64Z"/>
</mask>
<path d="M17.464 45C12.8347 45 9.45333 43.9333 7.32 41.8C5.18667 39.6667 4.12 36.2853 4.12 31.656V17.096C4.12 12.424 5.176 9.032 7.288 6.92C9.42133 4.808 12.792 3.752 17.4 3.752H25.144C29.0693 3.752 31.992 4.57333 33.912 6.216C35.832 7.83733 36.888 10.4507 37.08 14.056C37.144 14.632 37.0267 15.0693 36.728 15.368C36.4507 15.6667 36.0347 15.816 35.48 15.816C34.4133 15.816 33.8267 15.2507 33.72 14.12C33.5707 11.4747 32.8453 9.65066 31.544 8.648C30.2427 7.624 28.1093 7.112 25.144 7.112H17.4C14.9467 7.112 12.9947 7.432 11.544 8.072C10.0933 8.69067 9.048 9.736 8.408 11.208C7.78933 12.6587 7.48 14.6213 7.48 17.096V31.656C7.48 34.1307 7.8 36.0933 8.44 37.544C9.08 38.9947 10.1253 40.04 11.576 40.68C13.0267 41.32 14.9893 41.64 17.464 41.64H25.144C27.32 41.64 29.0373 41.3733 30.296 40.84C31.576 40.3067 32.4827 39.4107 33.016 38.152C33.5493 36.8933 33.816 35.1547 33.816 32.936V28.936L26.808 28.872C25.6987 28.872 25.144 28.3067 25.144 27.176C25.144 26.0667 25.6987 25.512 26.808 25.512L35.512 25.576C36.6213 25.576 37.176 26.1307 37.176 27.24V32.936C37.176 37.16 36.2267 40.232 34.328 42.152C32.4293 44.0507 29.368 45 25.144 45H17.464ZM49.305 45C48.1743 45 47.609 44.4347 47.609 43.304V16.424C47.609 15.3147 48.1743 14.76 49.305 14.76C50.4143 14.76 50.969 15.3147 50.969 16.424V21.352C52.0783 19.2187 53.6783 17.5867 55.769 16.456C57.881 15.3253 60.377 14.76 63.257 14.76C64.3877 14.76 64.953 15.3147 64.953 16.424C64.953 17.5547 64.3877 18.12 63.257 18.12C59.4597 18.12 56.5157 18.984 54.425 20.712C52.3343 22.4187 51.1823 24.8613 50.969 28.04V43.304C50.969 44.4347 50.4143 45 49.305 45ZM81.172 45C77.1827 45 74.26 44.0827 72.404 42.248C70.548 40.392 69.62 37.48 69.62 33.512V26.28C69.62 22.248 70.548 19.3147 72.404 17.48C74.26 15.624 77.1827 14.7173 81.172 14.76H86.42C90.4093 14.76 93.3213 15.688 95.156 17.544C97.012 19.3787 97.94 22.2907 97.94 26.28V33.448C97.94 37.4373 97.012 40.36 95.156 42.216C93.3213 44.072 90.4093 45 86.42 45H81.172ZM72.98 33.512C72.98 36.52 73.5773 38.632 74.772 39.848C75.988 41.0427 78.1213 41.64 81.172 41.64H86.42C89.4707 41.64 91.5933 41.0427 92.788 39.848C93.9827 38.632 94.58 36.4987 94.58 33.448V26.28C94.58 23.2293 93.9827 21.1067 92.788 19.912C91.5933 18.7173 89.4707 18.12 86.42 18.12H81.172C79.124 18.0987 77.5027 18.344 76.308 18.856C75.1133 19.368 74.26 20.2213 73.748 21.416C73.236 22.6107 72.98 24.232 72.98 26.28V33.512ZM134.455 14.76C135.585 14.76 136.151 15.3147 136.151 16.424V43.304C136.151 44.4347 135.585 45 134.455 45C133.345 45 132.791 44.4347 132.791 43.304V40.264C130.764 43.4213 127.095 45 121.783 45H119.991C116.001 45 113.079 44.072 111.223 42.216C109.388 40.36 108.471 37.4373 108.471 33.448V16.424C108.471 15.3147 109.025 14.76 110.135 14.76C111.265 14.76 111.831 15.3147 111.831 16.424V33.448C111.831 36.4987 112.428 38.632 113.623 39.848C114.839 41.0427 116.961 41.64 119.991 41.64H121.783C125.089 41.64 127.692 41.1067 129.591 40.04C131.489 38.9733 132.556 37.3413 132.791 35.144V16.424C132.791 15.3147 133.345 14.76 134.455 14.76ZM149.805 45C148.674 45 148.109 44.4347 148.109 43.304V16.424C148.109 15.3147 148.674 14.76 149.805 14.76C150.914 14.76 151.469 15.3147 151.469 16.424V19.496C153.496 16.3387 157.165 14.76 162.477 14.76H164.269C168.258 14.76 171.17 15.688 173.005 17.544C174.861 19.3787 175.789 22.2907 175.789 26.28V43.304C175.789 44.4347 175.234 45 174.125 45C172.994 45 172.429 44.4347 172.429 43.304V26.28C172.429 23.2293 171.821 21.1067 170.605 19.912C169.41 18.7173 167.298 18.12 164.269 18.12H162.477C159.17 18.12 156.568 18.6427 154.669 19.688C152.77 20.7333 151.704 22.3653 151.469 24.584V43.304C151.469 44.4347 150.914 45 149.805 45ZM197.86 45C193.87 45 190.948 44.072 189.092 42.216C187.236 40.36 186.308 37.4373 186.308 33.448V26.28C186.308 22.2907 187.236 19.3787 189.092 17.544C190.948 15.688 193.87 14.76 197.86 14.76H211.268V2.28C211.268 1.17066 211.833 0.615997 212.964 0.615997C214.073 0.615997 214.628 1.17066 214.628 2.28V43.304C214.628 44.4347 214.073 45 212.964 45C211.833 45 211.268 44.4347 211.268 43.304V40.552C210.35 42.024 209.006 43.1333 207.236 43.88C205.465 44.6267 203.15 45 200.292 45H197.86ZM197.86 41.64H200.292C203.62 41.64 206.276 41.1173 208.26 40.072C210.265 39.0053 211.268 37.416 211.268 35.304V18.12H197.86C194.809 18.12 192.676 18.728 191.46 19.944C190.265 21.1387 189.668 23.2507 189.668 26.28V33.448C189.668 36.4987 190.265 38.632 191.46 39.848C192.676 41.0427 194.809 41.64 197.86 41.64Z" fill="#8F9779"/>
<path d="M7.32 41.8L8.02711 41.0929L7.32 41.8ZM7.288 6.92L6.58445 6.20934L6.58089 6.21289L7.288 6.92ZM33.912 6.216L33.2619 6.97587L33.2668 6.98003L33.912 6.216ZM37.08 14.056L36.0814 14.1092L36.0829 14.1379L36.0861 14.1664L37.08 14.056ZM36.728 15.368L36.0209 14.6609L36.0078 14.674L35.9952 14.6875L36.728 15.368ZM33.72 14.12L32.7216 14.1764L32.7227 14.1952L32.7244 14.2139L33.72 14.12ZM31.544 8.648L30.9256 9.43391L30.9337 9.44014L31.544 8.648ZM11.544 8.072L11.9363 8.99191L11.9476 8.98692L11.544 8.072ZM8.408 11.208L7.49091 10.8093L7.48816 10.8157L8.408 11.208ZM8.44 37.544L7.52508 37.9476L8.44 37.544ZM11.576 40.68L11.1724 41.5949H11.1724L11.576 40.68ZM30.296 40.84L29.9114 39.9169L29.9059 39.9192L30.296 40.84ZM33.016 38.152L32.0952 37.7619L33.016 38.152ZM33.816 28.936H34.816V27.9451L33.8251 27.936L33.816 28.936ZM26.808 28.872L26.8171 27.872H26.808V28.872ZM26.808 25.512L26.8154 24.512H26.808V25.512ZM35.512 25.576L35.5046 26.576H35.512V25.576ZM34.328 42.152L35.0351 42.8591L35.039 42.8551L34.328 42.152ZM17.464 44C12.9611 44 9.89345 42.9592 8.02711 41.0929L6.61289 42.5071C9.01321 44.9074 12.7082 46 17.464 46V44ZM8.02711 41.0929C6.16076 39.2265 5.12 36.1589 5.12 31.656H3.12C3.12 36.4118 4.21257 40.1068 6.61289 42.5071L8.02711 41.0929ZM5.12 31.656V17.096H3.12V31.656H5.12ZM5.12 17.096C5.12 12.5438 6.1531 9.46911 7.99511 7.62711L6.58089 6.21289C4.1989 8.59488 3.12 12.3042 3.12 17.096H5.12ZM7.99154 7.63065C9.85838 5.78249 12.9177 4.752 17.4 4.752V2.752C12.6663 2.752 8.98429 3.83351 6.58446 6.20935L7.99154 7.63065ZM17.4 4.752H25.144V2.752H17.4V4.752ZM25.144 4.752C28.9567 4.752 31.5999 5.55394 33.2619 6.97585L34.5621 5.45615C32.3841 3.59273 29.182 2.752 25.144 2.752V4.752ZM33.2668 6.98003C34.8979 8.35738 35.8976 10.6573 36.0814 14.1092L38.0786 14.0028C37.8784 10.244 36.7661 7.31728 34.5572 5.45197L33.2668 6.98003ZM36.0861 14.1664C36.1298 14.5597 36.0323 14.6495 36.0209 14.6609L37.4351 16.0751C38.0211 15.4892 38.1582 14.7043 38.0739 13.9456L36.0861 14.1664ZM35.9952 14.6875C35.9679 14.717 35.8607 14.816 35.48 14.816V16.816C36.2086 16.816 36.9334 16.6164 37.4608 16.0485L35.9952 14.6875ZM35.48 14.816C35.1227 14.816 34.9888 14.7248 34.9339 14.6719C34.87 14.6103 34.7553 14.4466 34.7156 14.0261L32.7244 14.2139C32.7914 14.9241 33.0234 15.6083 33.5461 16.1121C34.0779 16.6245 34.7706 16.816 35.48 16.816V14.816ZM34.7184 14.0636C34.5626 11.3027 33.7951 9.12007 32.1543 7.85586L30.9337 9.44014C31.8955 10.1813 32.5788 11.6466 32.7216 14.1764L34.7184 14.0636ZM32.1624 7.86213C30.5918 6.62626 28.1764 6.112 25.144 6.112V8.112C28.0423 8.112 29.8935 8.62174 30.9256 9.43387L32.1624 7.86213ZM25.144 6.112H17.4V8.112H25.144V6.112ZM17.4 6.112C14.8759 6.112 12.7685 6.43876 11.1404 7.15708L11.9476 8.98692C13.2208 8.42523 15.0174 8.112 17.4 8.112V6.112ZM11.1517 7.15215C9.46135 7.87305 8.23082 9.10752 7.49093 10.8093L9.32507 11.6067C9.86518 10.3645 10.7253 9.50828 11.9363 8.99184L11.1517 7.15215ZM7.48816 10.8157C6.79513 12.4407 6.48 14.5549 6.48 17.096H8.48C8.48 14.6878 8.78354 12.8766 9.32784 11.6003L7.48816 10.8157ZM6.48 17.096V31.656H8.48V17.096H6.48ZM6.48 31.656C6.48 34.2 6.80639 36.3186 7.52508 37.9476L9.35492 37.1404C8.79361 35.8681 8.48 34.0614 8.48 31.656H6.48ZM7.52508 37.9476C8.26577 39.6265 9.49346 40.8542 11.1724 41.5949L11.9796 39.7651C10.7572 39.2258 9.89423 38.3628 9.35492 37.1404L7.52508 37.9476ZM11.1724 41.5949C12.8014 42.3136 14.92 42.64 17.464 42.64V40.64C15.0586 40.64 13.2519 40.3264 11.9796 39.7651L11.1724 41.5949ZM17.464 42.64H25.144V40.64H17.464V42.64ZM25.144 42.64C27.3838 42.64 29.2526 42.3682 30.6861 41.7607L29.9059 39.9192C28.822 40.3785 27.2562 40.64 25.144 40.64V42.64ZM30.6806 41.7631C32.1983 41.1307 33.2997 40.0456 33.9368 38.5421L32.0952 37.7619C31.6656 38.7757 30.9537 39.4826 29.9114 39.9169L30.6806 41.7631ZM33.9368 38.5421C34.5449 37.1069 34.816 35.2154 34.816 32.936H32.816C32.816 35.094 32.5537 36.6798 32.0952 37.7619L33.9368 38.5421ZM34.816 32.936V28.936H32.816V32.936H34.816ZM33.8251 27.936L26.8171 27.872L26.7989 29.872L33.8069 29.936L33.8251 27.936ZM26.808 27.872C26.4124 27.872 26.2982 27.7725 26.2738 27.7477C26.246 27.7193 26.144 27.5919 26.144 27.176H24.144C24.144 27.8907 24.3194 28.6114 24.8462 29.1483C25.3765 29.6888 26.0943 29.872 26.808 29.872V27.872ZM26.144 27.176C26.144 26.7755 26.2435 26.6588 26.2671 26.6351C26.2908 26.6115 26.4075 26.512 26.808 26.512V24.512C26.0992 24.512 25.3839 24.6899 24.8529 25.2209C24.3219 25.7519 24.144 26.4672 24.144 27.176H26.144ZM26.8006 26.512L35.5047 26.576L35.5194 24.576L26.8154 24.512L26.8006 26.512ZM35.512 26.576C35.9125 26.576 36.0292 26.6755 36.0529 26.6991C36.0765 26.7228 36.176 26.8395 36.176 27.24H38.176C38.176 26.5312 37.9981 25.8159 37.4671 25.2849C36.9361 24.7539 36.2208 24.576 35.512 24.576V26.576ZM36.176 27.24V32.936H38.176V27.24H36.176ZM36.176 32.936C36.176 37.0408 35.2492 39.7982 33.617 41.4489L35.039 42.8551C37.2041 40.6658 38.176 37.2792 38.176 32.936H36.176ZM33.6209 41.4449C31.9931 43.0727 29.2501 44 25.144 44V46C29.4859 46 32.8656 45.0286 35.0351 42.8591L33.6209 41.4449ZM25.144 44H17.464V46H25.144V44ZM50.969 21.352H49.969L51.8562 21.8134L50.969 21.352ZM55.769 16.456L55.297 15.5744L55.2933 15.5764L55.769 16.456ZM54.425 20.712L55.0574 21.4867L55.0621 21.4828L54.425 20.712ZM50.969 28.04L49.9712 27.973L49.969 28.0065V28.04H50.969ZM49.305 44C48.8938 44 48.7691 43.8979 48.7401 43.8689C48.7111 43.8399 48.609 43.7152 48.609 43.304H46.609C46.609 44.0235 46.7895 44.7468 47.3259 45.2831C47.8622 45.8195 48.5855 46 49.305 46V44ZM48.609 43.304V16.424H46.609V43.304H48.609ZM48.609 16.424C48.609 16.0284 48.7085 15.9142 48.7333 15.8898C48.7617 15.862 48.8891 15.76 49.305 15.76V13.76C48.5903 13.76 47.8696 13.9354 47.3327 14.4622C46.7922 14.9925 46.609 15.7103 46.609 16.424H48.609ZM49.305 15.76C49.7055 15.76 49.8222 15.8595 49.8459 15.8831C49.8695 15.9068 49.969 16.0235 49.969 16.424H51.969C51.969 15.7152 51.7911 14.9999 51.2601 14.4689C50.7291 13.9379 50.0138 13.76 49.305 13.76V15.76ZM49.969 16.424V21.352H51.969V16.424H49.969ZM51.8562 21.8134C52.8744 19.8552 54.3321 18.37 56.2447 17.3356L55.2933 15.5764C53.0245 16.8034 51.2822 18.5821 50.0818 20.8906L51.8562 21.8134ZM56.241 17.3376C58.1812 16.2989 60.5086 15.76 63.257 15.76V13.76C60.2454 13.76 57.5808 14.3517 55.297 15.5744L56.241 17.3376ZM63.257 15.76C63.6729 15.76 63.8003 15.862 63.8287 15.8898C63.8535 15.9142 63.953 16.0284 63.953 16.424H65.953C65.953 15.7103 65.7698 14.9925 65.2293 14.4622C64.6924 13.9354 63.9717 13.76 63.257 13.76V15.76ZM63.953 16.424C63.953 16.8352 63.8509 16.9599 63.8219 16.9889C63.7929 17.0179 63.6682 17.12 63.257 17.12V19.12C63.9765 19.12 64.6998 18.9395 65.2361 18.4031C65.7725 17.8668 65.953 17.1435 65.953 16.424H63.953ZM63.257 17.12C59.319 17.12 56.1178 18.0155 53.7879 19.9412L55.0621 21.4828C56.9136 19.9525 59.6003 19.12 63.257 19.12V17.12ZM53.7926 19.9373C51.4487 21.8508 50.1995 24.5723 49.9712 27.973L51.9668 28.107C52.1652 25.1504 53.22 22.9866 55.0574 21.4867L53.7926 19.9373ZM49.969 28.04V43.304H51.969V28.04H49.969ZM49.969 43.304C49.969 43.7199 49.867 43.8473 49.8392 43.8757C49.8148 43.9005 49.7006 44 49.305 44V46C50.0187 46 50.7365 45.8168 51.2668 45.2763C51.7936 44.7394 51.969 44.0187 51.969 43.304H49.969ZM72.404 42.248L71.6969 42.9551L71.701 42.9592L72.404 42.248ZM72.404 17.48L73.107 18.1912L73.1111 18.1871L72.404 17.48ZM81.172 14.76L81.1613 15.76H81.172V14.76ZM95.156 17.544L94.4448 18.2471L94.453 18.2552L95.156 17.544ZM95.156 42.216L94.4489 41.5089L94.4448 41.513L95.156 42.216ZM74.772 39.848L74.0587 40.5488L74.0649 40.5551L74.0712 40.5613L74.772 39.848ZM92.788 39.848L93.4951 40.5551L93.5013 40.5488L92.788 39.848ZM81.172 18.12L81.1616 19.12H81.172V18.12ZM73.748 21.416L72.8289 21.0221L73.748 21.416ZM81.172 44C77.3097 44 74.6972 43.1088 73.107 41.5368L71.701 42.9592C73.8228 45.0566 77.0557 46 81.172 46V44ZM73.1111 41.5409C71.5197 39.9495 70.62 37.3485 70.62 33.512H68.62C68.62 37.6115 69.5763 40.8345 71.6969 42.9551L73.1111 41.5409ZM70.62 33.512V26.28H68.62V33.512H70.62ZM70.62 26.28C70.62 22.3728 71.5228 19.7572 73.107 18.1912L71.701 16.7688C69.5732 18.8722 68.62 22.1232 68.62 26.28H70.62ZM73.1111 18.1871C74.6976 16.6006 77.303 15.7187 81.1613 15.7599L81.1827 13.7601C77.0623 13.716 73.8224 14.6474 71.6969 16.7729L73.1111 18.1871ZM81.172 15.76H86.42V13.76H81.172V15.76ZM86.42 15.76C90.2809 15.76 92.8771 16.6611 94.4448 18.247L95.8672 16.841C93.7655 14.7149 90.5378 13.76 86.42 13.76V15.76ZM94.453 18.2552C96.0389 19.8229 96.94 22.4191 96.94 26.28H98.94C98.94 22.1622 97.9851 18.9345 95.859 16.8328L94.453 18.2552ZM96.94 26.28V33.448H98.94V26.28H96.94ZM96.94 33.448C96.94 37.3077 96.0394 39.9184 94.4489 41.5089L95.8631 42.9231C97.9846 40.8016 98.94 37.567 98.94 33.448H96.94ZM94.4448 41.513C92.8771 43.0989 90.2809 44 86.42 44V46C90.5378 46 93.7655 45.0451 95.8672 42.919L94.4448 41.513ZM86.42 44H81.172V46H86.42V44ZM71.98 33.512C71.98 36.5979 72.5824 39.0462 74.0587 40.5488L75.4853 39.1472C74.5722 38.2178 73.98 36.4421 73.98 33.512H71.98ZM74.0712 40.5613C75.5757 42.0395 78.0482 42.64 81.172 42.64V40.64C78.1944 40.64 76.4003 40.0459 75.4728 39.1347L74.0712 40.5613ZM81.172 42.64H86.42V40.64H81.172V42.64ZM86.42 42.64C89.541 42.64 92.0096 42.0406 93.4951 40.5551L92.0809 39.1409C91.177 40.0447 89.4003 40.64 86.42 40.64V42.64ZM93.5013 40.5488C94.9795 39.0443 95.58 36.5718 95.58 33.448H93.58C93.58 36.4256 92.9859 38.2197 92.0747 39.1472L93.5013 40.5488ZM95.58 33.448V26.28H93.58V33.448H95.58ZM95.58 26.28C95.58 23.159 94.9806 20.6904 93.4951 19.2049L92.0809 20.6191C92.9847 21.5229 93.58 23.2997 93.58 26.28H95.58ZM93.4951 19.2049C92.0096 17.7194 89.541 17.12 86.42 17.12V19.12C89.4003 19.12 91.177 19.7153 92.0809 20.6191L93.4951 19.2049ZM86.42 17.12H81.172V19.12H86.42V17.12ZM81.1824 17.1201C79.0667 17.098 77.2888 17.3477 75.9141 17.9369L76.7019 19.7751C77.7165 19.3403 79.1813 19.0993 81.1616 19.1199L81.1824 17.1201ZM75.9141 17.9369C74.4834 18.55 73.442 19.5914 72.8289 21.0221L74.6671 21.8099C75.078 20.8513 75.7433 20.186 76.7019 19.7751L75.9141 17.9369ZM72.8289 21.0221C72.2417 22.3922 71.98 24.1659 71.98 26.28H73.98C73.98 24.2981 74.2303 22.8292 74.6671 21.8099L72.8289 21.0221ZM71.98 26.28V33.512H73.98V26.28H71.98ZM132.79 40.264H133.79V36.8549L131.949 39.7238L132.79 40.264ZM111.223 42.216L110.511 42.919L110.515 42.9231L111.223 42.216ZM113.622 39.848L112.909 40.5488L112.915 40.5551L112.922 40.5613L113.622 39.848ZM129.59 40.04L130.08 40.9118L129.59 40.04ZM132.79 35.144L133.785 35.2502L133.79 35.1972V35.144H132.79ZM134.454 15.76C134.87 15.76 134.998 15.862 135.026 15.8898C135.051 15.9142 135.15 16.0284 135.15 16.424H137.15C137.15 15.7103 136.967 14.9925 136.427 14.4622C135.89 13.9354 135.169 13.76 134.454 13.76V15.76ZM135.15 16.424V43.304H137.15V16.424H135.15ZM135.15 43.304C135.15 43.7152 135.048 43.8399 135.019 43.8689C134.99 43.8979 134.866 44 134.454 44V46C135.174 46 135.897 45.8195 136.434 45.2831C136.97 44.7468 137.15 44.0235 137.15 43.304H135.15ZM134.454 44C134.059 44 133.945 43.9005 133.92 43.8757C133.892 43.8473 133.79 43.7199 133.79 43.304H131.79C131.79 44.0187 131.966 44.7394 132.493 45.2763C133.023 45.8168 133.741 46 134.454 46V44ZM133.79 43.304V40.264H131.79V43.304H133.79ZM131.949 39.7238C130.176 42.4851 126.908 44 121.783 44V46C127.281 46 131.351 44.3575 133.632 40.8042L131.949 39.7238ZM121.783 44H119.991V46H121.783V44ZM119.991 44C116.131 44 113.52 43.0994 111.93 41.5089L110.515 42.9231C112.637 45.0446 115.871 46 119.991 46V44ZM111.934 41.513C110.362 39.9228 109.47 37.3103 109.47 33.448H107.47C107.47 37.5643 108.414 40.7972 110.511 42.919L111.934 41.513ZM109.47 33.448V16.424H107.47V33.448H109.47ZM109.47 16.424C109.47 16.0235 109.57 15.9068 109.594 15.8831C109.617 15.8595 109.734 15.76 110.134 15.76V13.76C109.426 13.76 108.71 13.9379 108.179 14.4689C107.648 14.9999 107.47 15.7152 107.47 16.424H109.47ZM110.134 15.76C110.55 15.76 110.678 15.862 110.706 15.8898C110.731 15.9142 110.83 16.0284 110.83 16.424H112.83C112.83 15.7103 112.647 14.9925 112.107 14.4622C111.57 13.9354 110.849 13.76 110.134 13.76V15.76ZM110.83 16.424V33.448H112.83V16.424H110.83ZM110.83 33.448C110.83 36.5718 111.431 39.0443 112.909 40.5488L114.336 39.1472C113.425 38.2197 112.83 36.4256 112.83 33.448H110.83ZM112.922 40.5613C114.425 42.0385 116.886 42.64 119.991 42.64V40.64C117.037 40.64 115.252 40.0468 114.323 39.1347L112.922 40.5613ZM119.991 42.64H121.783V40.64H119.991V42.64ZM121.783 42.64C125.179 42.64 127.974 42.0951 130.08 40.9118L129.101 39.1682C127.41 40.1182 124.999 40.64 121.783 40.64V42.64ZM130.08 40.9118C132.266 39.6839 133.516 37.7637 133.785 35.2502L131.796 35.0378C131.595 36.919 130.712 38.2628 129.101 39.1682L130.08 40.9118ZM133.79 35.144V16.424H131.79V35.144H133.79ZM133.79 16.424C133.79 16.0235 133.89 15.9068 133.914 15.8831C133.937 15.8595 134.054 15.76 134.454 15.76V13.76C133.746 13.76 133.03 13.9379 132.499 14.4689C131.968 14.9999 131.79 15.7152 131.79 16.424H133.79ZM151.469 19.496H150.469V22.9051L152.311 20.0362L151.469 19.496ZM173.005 17.544L172.294 18.2471L172.302 18.2552L173.005 17.544ZM170.605 19.912L169.898 20.6191L169.904 20.6253L170.605 19.912ZM154.669 19.688L155.151 20.564L154.669 19.688ZM151.469 24.584L150.475 24.4788L150.469 24.5313V24.584H151.469ZM149.805 44C149.394 44 149.269 43.8979 149.24 43.8689C149.211 43.8399 149.109 43.7152 149.109 43.304H147.109C147.109 44.0235 147.29 44.7468 147.826 45.2831C148.362 45.8195 149.086 46 149.805 46V44ZM149.109 43.304V16.424H147.109V43.304H149.109ZM149.109 16.424C149.109 16.0284 149.208 15.9142 149.233 15.8898C149.262 15.862 149.389 15.76 149.805 15.76V13.76C149.09 13.76 148.37 13.9354 147.833 14.4622C147.292 14.9925 147.109 15.7103 147.109 16.424H149.109ZM149.805 15.76C150.206 15.76 150.322 15.8595 150.346 15.8831C150.37 15.9068 150.469 16.0235 150.469 16.424H152.469C152.469 15.7152 152.291 14.9999 151.76 14.4689C151.229 13.9379 150.514 13.76 149.805 13.76V15.76ZM150.469 16.424V19.496H152.469V16.424H150.469ZM152.311 20.0362C154.083 17.2748 157.351 15.76 162.477 15.76V13.76C156.979 13.76 152.908 15.4025 150.627 18.9558L152.311 20.0362ZM162.477 15.76H164.269V13.76H162.477V15.76ZM164.269 15.76C168.13 15.76 170.726 16.6611 172.294 18.247L173.716 16.841C171.615 14.7149 168.387 13.76 164.269 13.76V15.76ZM172.302 18.2552C173.888 19.8229 174.789 22.4191 174.789 26.28H176.789C176.789 22.1622 175.834 18.9345 173.708 16.8328L172.302 18.2552ZM174.789 26.28V43.304H176.789V26.28H174.789ZM174.789 43.304C174.789 43.7199 174.687 43.8473 174.659 43.8757C174.635 43.9005 174.521 44 174.125 44V46C174.839 46 175.557 45.8168 176.087 45.2763C176.614 44.7394 176.789 44.0187 176.789 43.304H174.789ZM174.125 44C173.714 44 173.589 43.8979 173.56 43.8689C173.531 43.8399 173.429 43.7152 173.429 43.304H171.429C171.429 44.0235 171.61 44.7468 172.146 45.2831C172.682 45.8195 173.406 46 174.125 46V44ZM173.429 43.304V26.28H171.429V43.304H173.429ZM173.429 26.28C173.429 23.1555 172.818 20.684 171.306 19.1987L169.904 20.6253C170.824 21.5294 171.429 23.3031 171.429 26.28H173.429ZM171.312 19.2049C169.828 17.7204 167.371 17.12 164.269 17.12V19.12C167.226 19.12 168.993 19.7143 169.898 20.6191L171.312 19.2049ZM164.269 17.12H162.477V19.12H164.269V17.12ZM162.477 17.12C159.083 17.12 156.291 17.6535 154.187 18.812L155.151 20.564C156.844 19.6318 159.258 19.12 162.477 19.12V17.12ZM154.187 18.812C151.992 20.0205 150.742 21.9463 150.475 24.4788L152.463 24.6892C152.665 22.7844 153.549 21.4462 155.151 20.564L154.187 18.812ZM150.469 24.584V43.304H152.469V24.584H150.469ZM150.469 43.304C150.469 43.7199 150.367 43.8473 150.339 43.8757C150.315 43.9005 150.201 44 149.805 44V46C150.519 46 151.237 45.8168 151.767 45.2763C152.294 44.7394 152.469 44.0187 152.469 43.304H150.469ZM189.092 42.216L188.384 42.9231L189.092 42.216ZM189.092 17.544L189.795 18.2552L189.799 18.2511L189.092 17.544ZM211.268 14.76V15.76H212.268V14.76H211.268ZM211.268 40.552H212.268V37.0566L210.419 40.0231L211.268 40.552ZM208.26 40.072L208.726 40.9567L208.729 40.9549L208.26 40.072ZM211.268 18.12H212.268V17.12H211.268V18.12ZM191.46 19.944L190.752 19.2369L191.46 19.944ZM191.46 39.848L190.746 40.5488L190.752 40.5551L190.759 40.5613L191.46 39.848ZM197.859 44C194 44 191.389 43.0994 189.799 41.5089L188.384 42.9231C190.506 45.0446 193.74 46 197.859 46V44ZM189.799 41.5089C188.208 39.9184 187.307 37.3077 187.307 33.448H185.307C185.307 37.567 186.263 40.8016 188.384 42.9231L189.799 41.5089ZM187.307 33.448V26.28H185.307V33.448H187.307ZM187.307 26.28C187.307 22.4191 188.209 19.8229 189.795 18.2552L188.388 16.8328C186.262 18.9345 185.307 22.1622 185.307 26.28H187.307ZM189.799 18.2511C191.389 16.6606 194 15.76 197.859 15.76V13.76C193.74 13.76 190.506 14.7154 188.384 16.8369L189.799 18.2511ZM197.859 15.76H211.268V13.76H197.859V15.76ZM212.268 14.76V2.28H210.268V14.76H212.268ZM212.268 2.28C212.268 1.88435 212.367 1.7702 212.392 1.74581C212.42 1.71796 212.548 1.616 212.964 1.616V-0.384003C212.249 -0.384003 211.528 -0.20863 210.991 0.31819C210.451 0.848463 210.268 1.56631 210.268 2.28H212.268ZM212.964 1.616C213.364 1.616 213.481 1.71545 213.504 1.73911C213.528 1.76276 213.628 1.87948 213.628 2.28H215.628C215.628 1.57119 215.45 0.855904 214.919 0.32489C214.388 -0.206123 213.672 -0.384003 212.964 -0.384003V1.616ZM213.628 2.28V43.304H215.628V2.28H213.628ZM213.628 43.304C213.628 43.7199 213.526 43.8473 213.498 43.8757C213.473 43.9005 213.359 44 212.964 44V46C213.677 46 214.395 45.8168 214.925 45.2763C215.452 44.7394 215.628 44.0187 215.628 43.304H213.628ZM212.964 44C212.552 44 212.428 43.8979 212.399 43.8689C212.37 43.8399 212.268 43.7152 212.268 43.304H210.268C210.268 44.0235 210.448 44.7468 210.984 45.2831C211.521 45.8195 212.244 46 212.964 46V44ZM212.268 43.304V40.552H210.268V43.304H212.268ZM210.419 40.0231C209.622 41.3011 208.449 42.2831 206.847 42.9586L207.624 44.8014C209.563 43.9836 211.078 42.7469 212.116 41.0809L210.419 40.0231ZM206.847 42.9586C205.244 43.6345 203.076 44 200.292 44V46C203.224 46 205.686 45.6188 207.624 44.8014L206.847 42.9586ZM200.292 44H197.859V46H200.292V44ZM197.859 42.64H200.292V40.64H197.859V42.64ZM200.292 42.64C203.709 42.64 206.545 42.1056 208.726 40.9567L207.793 39.1873C206.006 40.1291 203.53 40.64 200.292 40.64V42.64ZM208.729 40.9549C209.853 40.3568 210.749 39.5833 211.361 38.6136C211.975 37.64 212.268 36.5248 212.268 35.304H210.268C210.268 36.1952 210.058 36.9307 209.67 37.5464C209.279 38.166 208.671 38.7205 207.79 39.1891L208.729 40.9549ZM212.268 35.304V18.12H210.268V35.304H212.268ZM211.268 17.12H197.859V19.12H211.268V17.12ZM197.859 17.12C194.732 17.12 192.257 17.7325 190.752 19.2369L192.167 20.6511C193.094 19.7235 194.885 19.12 197.859 19.12V17.12ZM190.752 19.2369C189.268 20.7214 188.667 23.1779 188.667 26.28H190.667C190.667 23.3235 191.262 21.5559 192.167 20.6511L190.752 19.2369ZM188.667 26.28V33.448H190.667V26.28H188.667ZM188.667 33.448C188.667 36.5718 189.268 39.0443 190.746 40.5488L192.173 39.1472C191.262 38.2197 190.667 36.4256 190.667 33.448H188.667ZM190.759 40.5613C192.263 42.0395 194.736 42.64 197.859 42.64V40.64C194.882 40.64 193.088 40.0459 192.16 39.1347L190.759 40.5613Z" fill="white" mask="url(#path-1-outside-1_109_2)"/>
</g>
<defs>
<filter id="filter0_d_109_2" x="0.120117" y="0.615967" width="218.507" height="52.384" filterUnits="userSpaceOnUse" color-interpolation-filters="sRGB">
<feFlood flood-opacity="0" result="BackgroundImageFix"/>
<feColorMatrix in="SourceAlpha" type="matrix" values="0 0 0 0 0 0 0 0 0 0 0 0 0 0 0 0 0 0 127 0" result="hardAlpha"/>
<feOffset dy="4"/>
<feGaussianBlur stdDeviation="2"/>
<feComposite in2="hardAlpha" operator="out"/>
<feColorMatrix type="matrix" values="0 0 0 0 0 0 0 0 0 0 0 0 0 0 0 0 0 0 0.25 0"/>
<feBlend mode="normal" in2="BackgroundImageFix" result="effect1_dropShadow_109_2"/>
<feBlend mode="normal" in="SourceGraphic" in2="effect1_dropShadow_109_2" result="shape"/>
</filter>
</defs>
</svg>
